<svg width="32" height="32" viewBox="0 0 32 32" fill="none" xmlns="http://www.w3.org/2000/svg">
<path d="M9 11V5C9 2.79086 10.7909 1 13 1H23L31 9V27C31 29.2091 29.2091 31 27 31H13C10.7909 31 9 29.2091 9 27V11Z" fill="white"/>
<path d="M23 1H13C10.7909 1 9 2.79086 9 5V11V27C9 29.2091 10.7909 31 13 31H27C29.2091 31 31 29.2091 31 27V9M23 1L31 9M23 1V5C23 7.20914 24.7909 9 27 9H31" stroke="#5D6873" stroke-width="2"/>
<rect y="13" width="22" height="12" rx="2" fill="#C4161C"/>
<path d="M3.375 22V16.1818H5.88636C6.31818 16.1818 6.69602 16.267 7.01989 16.4375C7.34375 16.608 7.59564 16.8475 7.77557 17.1562C7.95549 17.465 8.04545 17.8258 8.04545 18.2386C8.04545 18.6553 7.95265 19.0161 7.76705 19.321C7.58333 19.6259 7.32481 19.8608 6.99148 20.0256C6.66004 20.1903 6.27273 20.2727 5.82955 20.2727H4.32955V19.0455H5.51136C5.69697 19.0455 5.85511 19.0133 5.9858 18.9489C6.11837 18.8826 6.2197 18.7888 6.28977 18.6676C6.36174 18.5464 6.39773 18.4034 6.39773 18.2386C6.39773 18.072 6.36174 17.9299 6.28977 17.8125C6.2197 17.6932 6.11837 17.6023 5.9858 17.5398C5.85511 17.4754 5.69697 17.4432 5.51136 17.4432H4.95455V22H3.375ZM10.8636 22H8.625V16.1818H10.8409C11.4394 16.1818 11.9564 16.2983 12.392 16.5312C12.8295 16.7623 13.1667 17.0956 13.4034 17.5312C13.642 17.965 13.7614 18.4848 13.7614 19.0909C13.7614 19.697 13.643 20.2178 13.4062 20.6534C13.1695 21.0871 12.8343 21.4205 12.4006 21.6534C11.9669 21.8845 11.4545 22 10.8636 22ZM10.2045 20.6591H10.8068C11.0947 20.6591 11.34 20.6127 11.5426 20.5199C11.7472 20.4271 11.9025 20.267 12.0085 20.0398C12.1165 19.8125 12.1705 19.4962 12.1705 19.0909C12.1705 18.6856 12.1155 18.3693 12.0057 18.142C11.8977 17.9148 11.7386 17.7547 11.5284 17.6619C11.3201 17.5691 11.0644 17.5227 10.7614 17.5227H10.2045V20.6591ZM14.4922 22V16.1818H18.5831V17.4545H16.0717V18.4545H18.3331V19.7273H16.0717V22H14.4922Z" fill="white"/>
</svg>
